<?xml version="1.0" encoding="utf-8"?>
<!DOCTYPE svg PUBLIC "-//W3C//DTD SVG 1.0//EN" "http://www.w3.org/TR/2001/REC-SVG-20010904/DTD/svg10.dtd">
<svg version="1.0" xmlns="http://www.w3.org/2000/svg" width="515px" height="136px" viewBox="0 0 515 136" preserveAspectRatio="xMidYMid meet">
 <g fill="#ffffff">
  <path d="M469 133.9 c-6.4 -1.1 -17 -5.8 -17 -7.6 0 -1 4.9 -1.3 21 -1.3 16.1 0 21 -0.3 21 -1.2 0 -0.7 0.3 -2.3 0.6 -3.5 0.6 -2.3 0.6 -2.3 -12.5 -2.3 l-13.1 0 0 -3.3 c0 -2.7 0.8 -4 4.4 -7 2.6 -2.1 5.6 -3.7 7 -3.7 1.9 0 2.6 -0.5 2.6 -1.9 0 -1 3.3 -5.2 7.3 -9.2 11.4 -11.5 14.2 -19.7 9.3 -27 -2.8 -4 -7.2 -6.5 -13.4 -7.5 -2.3 -0.4 -4.2 -1 -4.2 -1.5 0 -0.5 0.4 -0.9 0.9 -0.9 0.5 0 1.1 -3.8 1.2 -8.4 0.4 -9.3 1.8 -12.2 7.9 -16.3 6.1 -4.2 15 -2.1 19.6 4.6 l2.4 3.6 0 31.5 c0 35.3 -0.6 40 -6.3 48.2 -8.1 11.7 -22.9 17.3 -38.7 14.7z m15.5 -28.9 c1 -1.1 1.4 -2 0.8 -2 -0.5 0 -1.8 0.9 -2.8 2 -1 1.1 -1.4 2 -0.8 2 0.5 0 1.8 -0.9 2.8 -2z"/>
  <path d="M451 117.9 c0 -6.6 6.6 -12.9 13.3 -12.9 1.3 0 3.2 -0.9 4.2 -2 1.5 -1.6 1.5 -2 0.3 -2 -0.8 0 -4.2 -1.4 -7.6 -3.1 -7.5 -3.7 -15.3 -12 -18.1 -19.2 -1.1 -2.8 -2 -4.4 -2 -3.4 -0.1 1.1 -0.6 1.5 -1.2 1.1 -1.1 -0.6 -0.8 -5.5 0.7 -14.1 0.5 -2.9 0.4 -3.3 -1.5 -3.3 -1.2 0 -2.1 -0.6 -2.1 -1.5 0 -0.8 0.6 -1.5 1.4 -1.5 0.9 0 1.5 -2.4 1.9 -8.7 0.5 -6.2 1.2 -9.5 2.5 -11.2 6.8 -9.1 18.9 -9.2 24.9 -0.2 2 3 2.3 4.7 2.3 13.4 0 8.4 0.2 9.8 1.5 9.3 2.8 -1 1.6 2.8 -1.6 5.5 -4 3.3 -3.2 4.9 2.1 4.2 3.8 -0.5 5.7 0.9 2.8 2 -2.5 0.9 2.4 2 5 1.1 2.9 -1 4.2 -3.4 1.8 -3.4 -0.9 0 -1.6 -0.7 -1.6 -1.5 0 -2.3 8.2 -2 11.1 0.4 2.1 1.7 2.4 2.8 2.4 8.3 0 5.1 -0.6 7.2 -2.8 11 -3.8 6.5 -16.4 17.8 -19.9 17.8 -2.3 0 -2.8 0.5 -2.8 2.4 0 1.7 -2 4.2 -6.7 8.5 -7.8 7 -10.3 7.7 -10.3 3z"/>
  <path d="M168 101.5 c-8.9 -1.6 -11.7 -3 -13.6 -6.7 -3.1 -6 -1.1 -12.3 4.7 -15.4 2.8 -1.4 4.1 -1.4 15.1 0.2 8.8 1.2 12.2 1.4 13.1 0.5 1.6 -1.6 0.8 -2 -8.9 -4.3 -15.6 -3.6 -22.4 -8.9 -24.3 -19.1 -1.9 -10.5 2.4 -19.8 11.9 -25.1 5.3 -3 5.9 -3.1 17.5 -3 19.8 0 28.6 3.2 30.1 10.9 0.8 4.7 -1.9 9.9 -6.2 12 -3 1.4 -4.5 1.5 -10.2 0.6 -10.9 -1.8 -17.7 -1.8 -17.7 -0.2 0 0.9 3.1 2.1 9.5 3.5 11.1 2.6 14.6 4.2 18.8 9 7.7 8.8 6.9 22.3 -1.8 30.8 -7.9 7.6 -19.7 9.6 -38 6.3z"/>
  <path d="M239 102.3 c-9.3 -1.5 -13.4 -2.8 -16 -4.9 -6 -5.1 -4.6 -14.5 2.7 -17.9 2.9 -1.4 4.5 -1.5 9.6 -0.7 11.3 1.9 18.5 2.4 19.1 1.4 0.9 -1.5 -1.5 -2.9 -6.4 -3.7 -19 -3.1 -28 -11 -28 -24.5 0 -10.7 6.9 -19.5 17.7 -22.6 8.5 -2.5 29.9 -0.9 37.1 2.8 4.9 2.5 6.7 10.6 3.5 15.5 -3.1 4.8 -6.6 5.4 -19.8 3.7 -8.6 -1.1 -12.1 -1.2 -12.9 -0.4 -1.6 1.6 0.6 2.6 8.3 4 9.7 1.7 18.6 6.3 21.9 11.3 2.4 3.6 2.7 5 2.7 12.7 0 7.6 -0.3 9.1 -2.5 12.3 -3.2 4.7 -8.5 8.4 -14.6 10.3 -4.3 1.3 -16.4 1.7 -22.4 0.7z"/>
  <path d="M393 101.5 c-3.2 -1 -4.8 -1.1 -5.7 -0.3 -1 0.8 -1.3 0.3 -1.3 -2.2 0 -2 1.9 -6.8 5 -12.5 2.8 -5.1 5 -9.5 5 -9.9 0 -0.3 -1.2 -0.6 -2.8 -0.6 -2.5 0 -3.2 0.9 -7.5 9.5 -3.6 7.4 -5.1 9.5 -6.8 9.5 -1.1 0 -1.8 -0.4 -1.4 -0.9 0.3 -0.6 -1.3 -3.4 -3.5 -6.3 -5.3 -7.1 -7.4 -13.5 -7.3 -22.8 0.1 -14.2 7.4 -26 20.5 -33.1 6 -3.3 6.7 -3.4 16.8 -3.4 12 0 16.8 1.6 23.9 8 7.8 7.1 7.2 12.7 -2.1 22.3 -3.5 3.6 -5.1 5.7 -3.5 4.7 2.6 -1.7 2.7 -1.7 2.7 0.4 0 1.6 -2 3.5 -7.7 7.1 -4.3 2.8 -7 5 -6.1 5 0.9 0 1.8 0.5 2 1.1 0.2 0.7 2.6 -0.3 6 -2.5 6.1 -4.1 11 -4.6 11.6 -1.3 0.6 3.3 -5.9 28.7 -7.4 28.7 -0.8 0 -1.4 -0.7 -1.4 -1.6 0 -1.1 -0.5 -1.4 -1.7 -0.9 -9 3.7 -19.3 4.5 -27.3 2z m15.7 -22.3 c2.1 -1.3 -0.4 -3.7 -3.9 -3.7 -3.2 -0.1 -6.1 2.1 -5.2 3.7 0.7 1 7.5 1 9.1 0z m-13.3 -8.9 c-2.5 -5 -1.2 -10.4 3.5 -14.7 2.7 -2.4 2.7 -3.6 0 -3.6 -2.9 0 -8.5 6.1 -9.3 10.1 -0.3 1.7 -0.1 4.9 0.4 7 0.9 3.4 1.5 3.9 4 3.9 2.8 0 2.9 -0.1 1.4 -2.7z"/>
  <path d="M10.4 100.1 c-4.9 -2.2 -8 -6.2 -9.3 -12.2 -1.3 -5.3 -1.4 -66.5 -0.2 -72.8 1.7 -8.6 8.2 -14.1 16.8 -14.1 3 0 6.6 0.6 8.2 1.4 1.5 0.8 7.6 7.2 13.6 14.1 11.4 13.2 13.4 15 16.3 14.1 1 -0.4 6.6 -6.2 12.5 -13.1 11.4 -13.2 13.8 -15.4 19 -16.4 7.5 -1.6 14.5 1.6 18.4 8.5 2.2 3.8 2.3 4.4 2.3 41.7 0 41 0.1 40.5 -5.7 45.9 -7.8 7.4 -19.9 5.9 -26 -3.3 -2.4 -3.7 -2.8 -5.3 -3.1 -14 -0.5 -11.1 -1.4 -12.2 -5.7 -6.5 -4.4 5.8 -12.3 8.1 -19 5.6 -1.5 -0.6 -4.5 -2.8 -6.7 -5.1 -2.2 -2.2 -4.5 -3.8 -5.1 -3.6 -0.8 0.2 -1.4 4 -1.7 10.3 -0.5 10.5 -1.2 12.3 -5.7 16.6 -5.4 5.1 -11.9 6.1 -18.9 2.9z"/>
  <path d="M124 100.1 c-1.9 -1 -4.5 -3.3 -5.8 -5.2 -2.3 -3.3 -2.3 -3.7 -2 -27.6 l0.3 -24.2 3.5 -3.6 c6.4 -6.6 14.7 -6.8 21.1 -0.4 4.8 4.8 5.1 7 4.7 32.6 -0.3 18.6 -0.5 20.4 -2.4 23 -5.2 7 -12.6 9.1 -19.4 5.4z"/>
  <path d="M293.3 100.1 c-6.8 -4.3 -6.8 -4.2 -6.8 -48.1 0 -44.1 -0.1 -43.6 7 -48 2.9 -1.8 4.7 -2.2 9.1 -1.8 4.7 0.4 6.1 1 9.2 4.2 l3.7 3.6 0.3 14.3 c0.3 15.7 0.7 18.7 2.4 18.7 0.7 0 6.1 -3.3 12.2 -7.2 10.4 -6.9 11.2 -7.3 16.7 -7.3 5.2 0 6.1 0.3 9.4 3.5 4.3 4.2 6 9.5 4.6 14.8 -1.2 4.4 -4.4 7.7 -11.8 12.2 -3.3 1.9 -5.3 3.9 -5.3 5 0 2 7.3 9 9.4 9 1.6 0 4.4 24.6 3.1 27.6 -0.7 1.8 -0.8 1.8 -1.2 0.2 -0.4 -1.6 -0.7 -1.6 -3.3 -0.3 -4 2 -9.9 1.9 -13.5 -0.4 -1.6 -1 -6.7 -5.3 -11.2 -9.5 -4.4 -4.2 -8.6 -7.6 -9.2 -7.6 -1.1 0 -1.5 1.3 -2.6 8.1 -0.3 2.2 -1.8 4.8 -4 6.9 -3 2.9 -4.3 3.4 -9.2 3.7 -4.5 0.3 -6.5 0 -9 -1.6z"/>
  <path d="M124.4 29 c-2.7 -1.1 -7.2 -6.5 -8 -9.6 -1.4 -5.4 0.3 -10.7 4.5 -14.6 3.6 -3.4 4.6 -3.8 9.1 -3.8 8.6 0 14.3 4.6 15.5 12.6 0.8 5.3 -2.7 12.1 -7.5 14.6 -3.6 1.9 -10 2.3 -13.6 0.8z"/>
 </g>
 <g fill="#73f773">
  <path d="M358 126.6 c0 -0.8 -0.9 -8.1 -2 -16.2 -1.1 -8.2 -2.5 -18.5 -3 -22.9 -0.6 -4.4 -1.2 -9.5 -1.5 -11.2 l-0.6 -3.3 6.9 0 6.9 0 0.7 6.3 c0.3 3.4 0.9 12.4 1.3 20 0.3 7.6 1 14 1.4 14.2 0.4 0.3 1.4 -1.4 2.2 -3.7 0.8 -2.4 5 -11.6 9.2 -20.6 l7.8 -16.2 8 0 c6.2 0 7.7 0.3 6.9 1.3 -0.5 0.6 -3.8 6.6 -7.2 13.2 -3.4 6.5 -7.3 13.5 -8.5 15.5 -1.2 1.9 -4.8 8.3 -7.9 14.3 l-5.7 10.7 -7.5 0 c-5.6 0 -7.4 -0.3 -7.4 -1.4z"/>
  <path d="M419.1 113.8 c5.5 -26.9 8.1 -38.3 9.2 -39.7 0.7 -0.7 -2.4 1 -6.7 3.8 -4.4 2.8 -8.4 5 -8.9 4.8 -0.6 -0.2 -1.5 -1.2 -2.1 -2.3 -0.6 -1 -1.8 -3.1 -2.8 -4.6 l-1.7 -2.6 6.5 -4.1 c3.6 -2.3 6.7 -4.1 6.9 -4.1 0.2 0 3.8 -2 7.8 -4.5 6.3 -3.8 8.3 -4.5 12.6 -4.5 6.1 0 6.2 0.4 3.1 12.6 -1.2 4.3 -4.3 18.5 -7 31.4 -2.7 12.9 -5.2 24.5 -5.5 25.8 -0.5 2 -1.1 2.2 -7.4 2.2 l-6.9 0 2.9 -14.2z"/>
  <path d="M450.4 126.4 c0.3 -0.9 0.6 -3 0.6 -4.8 0 -2.9 1.6 -4.7 17 -18.4 17.7 -15.9 22.1 -21.4 22.3 -27.8 0.1 -4.5 -3 -7.4 -8 -7.4 -4.1 0 -6.8 1.3 -11 5.2 l-3.1 3 -3.6 -5.3 -3.7 -5.4 2.8 -2.2 c7.3 -6 20.3 -9.3 28.1 -7.3 9.4 2.3 13.2 7.3 13.2 17.1 0 10.9 -4.8 17.6 -25.3 34.9 l-7.6 6.5 13.4 0.3 c7.4 0.1 13.5 0.6 13.5 1.1 0 0.4 -0.5 3.3 -1.1 6.4 l-1.2 5.7 -23.4 0 c-21 0 -23.4 -0.2 -22.9 -1.6z"/>
 </g>
</svg>